# xmcd
#
# Track frame offsets: 
#        150
#        3450
#        40200
#        70050
#        109200
#        130463
#        181613
#
# Disc length: 2894 seconds
#
# Revision: 0
# Processed by: cddbd v1.5.2PL0 Copyright (c) Steve Scherf et al.
# Submitted via: ExactAudioCopy v0.95b4
#
DISCID=570b4c07
DTITLE=Sistrenatus - Sensitive Disturbance
DYEAR=2009
DGENRE=Industrial
TTITLE0=Disrepair
TTITLE1=Frequency Contamination
TTITLE2=Rusted Earth
TTITLE3=Echoes From The Past
TTITLE4=Slow-Wave
TTITLE5=Lost Transmission
TTITLE6=Forgotten
EXTD=
EXTT0=
EXTT1=
EXTT2=
EXTT3=
EXTT4=
EXTT5=
EXTT6=
PLAYORDER=
